# xmcd CD database file
#
# Track frame offsets:
#	150
#	19275
#	38617
#	60535
#	72625
#	83812
#	100807
#	125100
#	138825
#	153075
#
# Disc length: 2244 seconds
#
# Revision: 3
# Processed by: cddbd v1.5PL3 Copyright (c) Steve Scherf et al.
# Submitted via: CDex 1.50beta10
#
DISCID=8108c20a
DTITLE=Jørn Hoel - Ubarbert
DYEAR=1982
DGENRE=
TTITLE0=Ta vare på
TTITLE1=Tusen Ansikta
TTITLE2=Hold Mæ
TTITLE3=Mor  Æ ska bli far
TTITLE4=Skjulte blikk
TTITLE5=Førr lite penga
TTITLE6=Stille Stille
TTITLE7=Jimmy Dørvakt
TTITLE8=Bankhjørnet
TTITLE9=Æ får'kje sove
EXTD=YEAR: 1982
EXTT0=
EXTT1=
EXTT2=
EXTT3=
EXTT4=
EXTT5=
EXTT6=
EXTT7=
EXTT8=
EXTT9=
PLAYORDER=
